<svg width="99" height="99" viewBox="0 0 99 99" fill="none" xmlns="http://www.w3.org/2000/svg">
<g clipPath="url(#clip0_4287_1092)">
<path d="M49.1922 95.8544C23.4618 95.8544 2.52734 74.9222 2.52734 49.1903C2.52811 23.4592 23.4618 2.52698 49.1929 2.52698C74.9241 2.52698 95.8578 23.4607 95.8578 49.1918C95.8578 74.9222 74.9233 95.8536 49.1929 95.8536L49.1922 95.8544Z" fill="#85EA2D"/>
<path d="M31.05 33.3537C30.8984 35.0305 31.1051 36.7638 30.9941 38.4589C30.8617 40.1563 30.6542 41.833 30.3142 43.509C29.8434 45.9023 28.3542 47.7115 26.3024 49.219C30.2974 51.8191 30.7483 55.8509 31.0125 59.9401C31.1442 62.1451 31.0875 64.3692 31.3141 66.5535C31.4833 68.2494 32.1425 68.6835 33.8958 68.7386C34.6117 68.7578 35.3459 68.7386 36.1759 68.7386V73.977C30.9941 74.8621 26.7173 73.3936 25.6608 69.0035C25.3135 67.3905 25.0994 65.7516 25.0207 64.1035C24.9074 62.3526 25.095 60.5993 24.964 58.8483C24.5874 54.0425 23.9649 52.4224 19.3689 52.1958V46.2239C19.7065 46.1473 20.0273 46.0907 20.3657 46.0532C22.8907 45.9215 23.9649 45.1482 24.5108 42.6614C24.7728 41.2622 24.9305 39.8455 24.9824 38.4229C25.1715 35.6904 25.0957 32.9028 25.5666 30.1894C26.225 26.2893 28.6367 24.4043 32.6517 24.1777C33.7817 24.1211 34.9317 24.1777 36.2318 24.1777V29.5294C35.6851 29.5677 35.2135 29.642 34.7242 29.642C31.4642 29.5287 31.295 30.6404 31.05 33.3537ZM37.3243 45.7515H37.2485C35.3635 45.6573 33.7435 47.1266 33.6485 49.0115C33.5551 50.9141 35.0244 52.5357 36.9093 52.6283H37.1352C39.0003 52.7417 40.6012 51.3084 40.7152 49.4433V49.2558C40.7535 47.3524 39.2276 45.7898 37.3243 45.7515ZM49.1379 45.7515C47.3111 45.6948 45.7845 47.1266 45.7278 48.9357C45.7278 49.0498 45.7278 49.1432 45.7462 49.2558C45.7462 51.3107 47.1404 52.6291 49.2512 52.6291C51.3237 52.6291 52.6245 51.2724 52.6245 49.1432C52.6054 47.0898 51.2288 45.7324 49.1379 45.7515ZM61.2355 45.7515C60.3103 45.735 59.4157 46.0836 58.7457 46.7218C58.0756 47.3601 57.6839 48.2366 57.6555 49.1616C57.6542 49.6172 57.7429 50.0686 57.9167 50.4898C58.0904 50.911 58.3457 51.2937 58.6679 51.6159C58.9901 51.9381 59.3728 52.1934 59.794 52.3671C60.2152 52.5409 60.6666 52.6297 61.1222 52.6283H61.1605C62.8939 52.93 64.6464 51.2533 64.7597 49.2374C64.8531 47.3716 63.1588 45.7515 61.2355 45.7515ZM77.8358 46.034C75.65 45.9398 74.5559 45.2048 74.0108 43.1323C73.6722 41.8052 73.4643 40.4482 73.3898 39.0806C73.2382 36.5556 73.2566 34.0122 73.0874 31.4871C72.6923 25.4954 68.3581 23.4044 62.0647 24.4396V29.6397C63.0631 29.6397 63.8356 29.6397 64.6081 29.6588C65.9464 29.6772 66.9639 30.1871 67.0956 31.6755C67.2273 33.0322 67.2273 34.4072 67.359 35.7831C67.6239 38.5163 67.774 41.2856 68.2448 43.9798C68.6598 46.2032 70.1865 47.8616 72.0883 49.2175C68.754 51.46 67.7732 54.6634 67.604 58.2626C67.5106 60.7302 67.4539 63.2177 67.3223 65.7052C67.2089 67.9661 66.418 68.7011 64.1372 68.7578C63.498 68.7761 62.8755 68.8328 62.1596 68.8711V74.2029C63.498 74.2029 64.7222 74.2795 65.9464 74.2029C69.7523 73.977 72.0515 72.1311 72.8064 68.437C73.1257 66.4019 73.3133 64.3485 73.3707 62.2944C73.5016 60.4109 73.484 58.5076 73.6723 56.6425C73.9549 53.7217 75.2924 52.5166 78.2125 52.3275C78.4889 52.2937 78.7609 52.2308 79.0241 52.1399V46.1672C78.5341 46.1106 78.1941 46.0532 77.8358 46.034ZM49.1953 4.86407C73.6777 4.86407 93.525 24.7091 93.525 49.1922C93.525 73.6746 73.6777 93.5211 49.1953 93.5211C24.7137 93.5211 4.86716 73.6746 4.86716 49.1915C4.86716 24.7114 24.7137 4.86407 49.1953 4.86407ZM49.1953 0.194519C22.1764 0.193753 0.195312 22.1748 0.195312 49.1938C0.195312 76.2111 22.1764 98.1922 49.1953 98.1922C76.2135 98.1922 98.1953 76.2111 98.1953 49.1922C98.1953 22.1733 76.2135 0.195285 49.1953 0.195285V0.194519Z" fill="#173647"/>
</g>
<defs>
<clipPath id="clip0_4287_1092">
<rect width="98" height="98" fill="white" transform="translate(0.195312 0.193787)"/>
</clipPath>
</defs>
</svg>
