<svg width="181" height="258" viewBox="0 0 181 258" fill="none" xmlns="http://www.w3.org/2000/svg">
<path d="M169.68 0.399982C177.04 0.399982 180.72 4.07998 180.72 11.44V52.656C180.72 59.648 177.04 63.696 169.68 63.696H76.944C69.952 63.696 65.904 67.376 65.904 74.736V86.512C65.904 93.504 69.952 97.552 76.944 97.552H137.664C145.024 97.552 148.704 101.232 148.704 108.592V149.808C148.704 156.8 145.024 160.848 137.664 160.848H76.944C69.952 160.848 65.904 164.528 65.904 171.888V246.96C65.904 253.952 62.224 258 54.864 258H11.44C4.448 258 0.4 253.952 0.4 246.96V11.44C0.4 4.07998 4.448 0.399982 11.44 0.399982H169.68Z" fill="white"/>
</svg>
