<svg width="54" height="76" viewBox="0 0 54 76" fill="none" xmlns="http://www.w3.org/2000/svg">
<path d="M50.08 0.399995C52.24 0.399995 53.32 1.47999 53.32 3.64V15.736C53.32 17.788 52.24 18.976 50.08 18.976H22.864C20.812 18.976 19.624 20.056 19.624 22.216V25.672C19.624 27.724 20.812 28.912 22.864 28.912H40.684C42.844 28.912 43.924 29.992 43.924 32.152V44.248C43.924 46.3 42.844 47.488 40.684 47.488H22.864C20.812 47.488 19.624 48.568 19.624 50.728V72.76C19.624 74.812 18.544 76 16.384 76H3.64C1.588 76 0.4 74.812 0.4 72.76V3.64C0.4 1.47999 1.588 0.399995 3.64 0.399995H50.08Z" fill="white"/>
</svg>
