<svg width="36" height="36" viewBox="0 0 36 36" fill="none" xmlns="http://www.w3.org/2000/svg">
<path d="M32 0H4C1.79086 0 0 1.79086 0 4V32C0 34.2091 1.79086 36 4 36H32C34.2091 36 36 34.2091 36 32V4C36 1.79086 34.2091 0 32 0Z" fill="#27272B"/>
<path d="M4.122 24V12.1H11.602V14.14H6.366V17.013H11.194V19.053H6.366V24H4.122Z" fill="white"/>
<path d="M14.227 24V23.558C14.227 23.116 14.261 22.742 14.329 22.436C14.397 22.1187 14.5443 21.7617 14.771 21.365L18.766 14.31V14.038H12.442V12.1H21.01V14.684L16.794 22.215C16.6467 22.4757 16.5447 22.708 16.488 22.912C16.4313 23.116 16.403 23.3653 16.403 23.66V24H14.227Z" fill="white"/>
<path d="M22.122 24V12.1H26.389L28.752 22.47H29.058V12.1H31.268V24H27.001L24.638 13.63H24.332V24H22.122Z" fill="white"/>
</svg>
