<svg width="36" height="36" viewBox="0 0 36 36" fill="none" xmlns="http://www.w3.org/2000/svg">
<path d="M32 0H4C1.79086 0 0 1.79086 0 4V32C0 34.2091 1.79086 36 4 36H32C34.2091 36 36 34.2091 36 32V4C36 1.79086 34.2091 0 32 0Z" fill="#27272B"/>
<path d="M11.355 14.259C9.20167 14.259 8.125 14.854 8.125 16.044C8.125 17.2453 9.009 17.846 10.777 17.846C12.5337 17.846 13.412 18.0613 13.412 18.492C13.412 18.934 12.5337 19.155 10.777 19.155C9.009 19.155 8.125 19.9597 8.125 21.569C8.125 23.1897 7.89833 24 7.445 24C6.99167 24 6.765 22.1583 6.765 18.475C6.765 14.7917 8.06833 12.95 10.675 12.95C13.2817 12.95 14.585 13.1653 14.585 13.596C14.585 14.038 13.5083 14.259 11.355 14.259ZM18.3387 12.95C20.4353 12.95 21.4837 13.1597 21.4837 13.579C21.4837 13.7037 21.4157 13.9813 21.2797 14.412C21.155 14.8427 20.9793 15.3753 20.7527 16.01C20.526 16.6447 20.271 17.3247 19.9877 18.05C19.7157 18.764 19.4267 19.4723 19.1207 20.175C18.826 20.8777 18.537 21.518 18.2537 22.096C17.9817 22.674 17.7323 23.1387 17.5057 23.49C17.2903 23.83 17.1203 24 16.9957 24C16.5423 24 16.9503 22.368 18.2197 19.104C19.4777 15.8513 19.285 14.225 17.6417 14.225C15.9983 14.225 15.1767 14.0097 15.1767 13.579C15.1767 13.1597 16.2307 12.95 18.3387 12.95ZM29.1984 12.95C29.6517 12.95 29.8784 14.7917 29.8784 18.475C29.8784 22.1583 29.6517 24 29.1984 24C28.745 24 27.6684 22.555 25.9684 19.665C24.2684 16.7863 23.4184 16.7863 23.4184 19.665C23.4184 22.555 23.1917 24 22.7384 24C22.285 24 22.0584 22.1583 22.0584 18.475C22.0584 14.7917 22.285 12.95 22.7384 12.95C23.1917 12.95 24.2684 14.4063 25.9684 17.319C27.6684 20.243 28.5184 20.243 28.5184 17.319C28.5184 14.4063 28.745 12.95 29.1984 12.95Z" fill="white"/>
</svg>
