<svg width="99" height="99" viewBox="0 0 99 99" fill="none" xmlns="http://www.w3.org/2000/svg">
<path d="M14.7695 87.3804L7.10938 1.46579H91.2791L83.6106 87.3674L49.143 96.9224L14.7695 87.3804Z" fill="#E44D26"/>
<path d="M49.1953 89.6181L77.0472 81.896L83.6002 8.48938H49.1953V89.6181Z" fill="#F16529"/>
<path d="M49.1959 40.3545H35.2524L34.2892 29.5638H49.1959V19.0273H22.7734L23.0261 21.8539L25.6154 50.8918H49.1959V40.3545ZM49.1959 67.7202L49.1492 67.7333L37.4145 64.5636L36.6649 56.1608H26.0863L27.5624 72.7052L49.1477 78.697L49.1959 78.684V67.7202Z" fill="#EBEBEB"/>
<path d="M49.1602 40.3551V50.8924H62.1352L60.9125 64.5581L49.1602 67.73V78.693L70.7623 72.7058L70.9208 70.9258L73.3968 43.1849L73.6533 40.3551H70.8143H49.1602ZM49.1602 19.0279V29.5644H74.6126L74.8239 27.1971L75.3047 21.8545L75.5566 19.0279H49.1602Z" fill="white"/>
</svg>
