<svg width="48" height="48" viewBox="0 0 48 48" fill="none" xmlns="http://www.w3.org/2000/svg">
<path d="M21.88 43.0248L18.0583 40.6146C17.0883 40.0028 16.6033 39.697 16.0651 39.6794C15.4834 39.6602 14.9899 39.9536 13.9417 40.6146C12.7679 41.3548 10.4337 43.3942 8.9239 42.4216C8 41.8266 8 40.315 8 37.2916V16C8 10.3432 8 7.51472 9.65398 5.75736C11.308 4 13.97 4 19.2941 4H28.7058C34.03 4 36.692 4 38.346 5.75736C40 7.51472 40 10.3432 40 16V37.2916C40 40.315 40 41.8266 39.076 42.4216C37.5662 43.3942 35.2322 41.3548 34.0582 40.6146C33.0882 40.0028 32.6034 39.697 32.065 39.6794C31.4834 39.6602 30.9898 39.9536 29.9418 40.6146L26.12 43.0248C25.089 43.6748 24.5736 44 24 44C23.4264 44 22.9108 43.6748 21.88 43.0248Z" fill="#2B2D22" stroke="#2B2D22" stroke-width="3" stroke-linecap="round" stroke-linejoin="round"/>
<path d="M24 15H27C28.6568 15 30 16.3431 30 18M24 15H21C19.3431 15 18 16.3431 18 18V19C18 20.6568 19.3431 22 21 22H27C28.6568 22 30 23.3432 30 25V26C30 27.6568 28.6568 29 27 29H24M24 15V12M24 29H21C19.3431 29 18 27.6568 18 26M24 29V32" stroke="#E8FF85" stroke-opacity="0.3" stroke-width="3" stroke-linecap="round" stroke-linejoin="round"/>
</svg>
