<svg xmlns="http://www.w3.org/2000/svg" width="48" height="49" viewBox="0 0 48 49" fill="none"><g opacity="0.09"><path d="M6.49114 5.58429V5.58617C5.13366 5.58804 4.02553 6.71868 4.04991 8.0743V22.8285V22.8304C4.05179 24.1692 5.15242 25.2698 6.49114 25.2716H6.49302H9.8174C9.63928 26.1454 9.44803 26.9329 9.02992 27.591C8.25553 28.7666 5.93055 30.4673 4.44179 31.0954C3.22868 31.6073 2.63617 33.0116 3.1143 34.2398L5.72617 40.9804C6.22115 42.261 7.70242 42.8892 8.96804 42.3529C8.96992 42.351 8.97179 42.351 8.97367 42.3492C13.8826 40.2154 17.593 36.7936 19.7473 32.2653C21.4366 28.7609 22.3142 25.0053 22.3142 18.1802V8.0719C22.3385 6.72002 21.2342 5.59126 19.8823 5.58377H19.8767L6.49282 5.58189V5.58377H6.49095L6.49114 5.58429ZM29.2235 5.58429C27.866 5.58617 26.7578 6.71868 26.7822 8.07429V22.8285V22.8304C26.7841 24.1692 27.8847 25.2698 29.2235 25.2716H29.2253H32.5516C32.3735 26.1454 32.1803 26.9329 31.7622 27.591C30.9878 28.7666 28.6629 30.4672 27.1741 31.0954C25.9591 31.6072 25.3685 33.0135 25.8485 34.2416L28.4604 40.9804C28.9553 42.261 30.4366 42.8891 31.7022 42.3529C31.7041 42.351 31.706 42.351 31.7079 42.3491C36.6168 40.2154 40.3253 36.7936 42.4815 32.2634C44.1689 28.759 45.0465 25.0034 45.0465 18.1802V8.07184C45.0709 6.71997 43.9684 5.5912 42.6165 5.58372H42.6109L29.227 5.58184L29.2251 5.58372H29.2233L29.2235 5.58429ZM6.4945 7.08429H19.8726C20.4088 7.08804 20.8213 7.51179 20.8138 8.04804C20.8119 8.05179 20.8119 8.05554 20.8138 8.06116V18.1824C20.8138 24.8818 19.9945 28.3018 18.3969 31.6167L18.395 31.6148C18.395 31.6167 18.3932 31.6167 18.3932 31.6185C16.3982 35.8111 13.0042 38.9592 8.37893 40.9709C7.87642 41.1827 7.32144 40.9484 7.12642 40.4384L4.51267 33.6977V33.6958V33.694C4.3233 33.2084 4.54455 32.6796 5.02455 32.4771C6.83578 31.714 9.17952 30.0958 10.2858 28.412C10.2877 28.4083 10.2896 28.4045 10.2914 28.4027C11.0789 27.1708 11.2289 25.8358 11.4689 24.6752C11.5139 24.4539 11.4577 24.2233 11.3152 24.0489C11.1727 23.8727 10.9589 23.7714 10.734 23.7714H6.4946C5.96396 23.7714 5.55149 23.3571 5.54957 22.8264V8.05873V8.06061V8.04748C5.5402 7.50936 5.95645 7.08561 6.4946 7.08561L6.4945 7.08429ZM29.2268 7.08429H42.6049C43.1412 7.08804 43.5555 7.51179 43.5461 8.04804V8.06116V18.1824C43.5461 24.8818 42.7268 28.3018 41.1292 31.6167V31.6148C41.1274 31.6167 41.1274 31.6167 41.1274 31.6185C39.1324 35.8111 35.737 38.9592 31.1131 40.9709C30.6106 41.1827 30.0556 40.9484 29.8606 40.4384L29.8587 40.4402C29.8606 40.4384 29.8606 40.4384 29.8587 40.4384L27.245 33.6977L27.2469 33.6958C27.245 33.6958 27.245 33.694 27.245 33.694C27.0556 33.2084 27.2787 32.6796 27.7587 32.4771C29.57 31.714 31.9118 30.0958 33.0181 28.412L33.02 28.4102C33.0218 28.4083 33.0237 28.4045 33.0256 28.4027C33.8131 27.1708 33.9612 25.8358 34.2012 24.6752V24.6733C34.2481 24.4539 34.1918 24.2233 34.0493 24.0489C33.9068 23.8745 33.6931 23.7714 33.4681 23.7714H29.2269C28.6962 23.7696 28.2838 23.3571 28.2818 22.8264V8.05873V8.06061V8.04748C28.2725 7.50935 28.6887 7.08561 29.2269 7.08561L29.2268 7.08429Z" fill="black"/></g></svg>