<svg width="99" height="99" viewBox="0 0 99 99" fill="none" xmlns="http://www.w3.org/2000/svg">
<g clipPath="url(#clip0_4288_1095)">
<path d="M63.0845 98.3695L92.5498 91.9955C92.5498 91.9955 81.9168 20.0757 81.8311 19.598C81.7576 19.1243 81.3656 18.814 80.9695 18.814C80.5734 18.814 73.0928 18.2586 73.0928 18.2586C73.0928 18.2586 67.8865 13.0565 67.2169 12.497C67.0331 12.346 66.9106 12.2643 66.7228 12.1949L62.9906 98.3695H63.0845ZM48.2743 46.6174C48.2743 46.6174 44.9668 44.886 41.0304 44.886C35.1218 44.886 34.8891 48.5855 34.8891 49.5451C34.8891 54.5758 48.1191 56.548 48.1191 68.4469C48.1191 77.8181 42.2391 83.8002 34.2113 83.8002C24.5991 83.8002 19.7563 77.8181 19.7563 77.8181L22.3941 69.3003C22.3941 69.3003 27.4778 73.6531 31.7041 73.6531C34.4603 73.6531 35.6853 71.4277 35.6853 69.8475C35.6853 63.2365 24.8482 62.9303 24.8482 52.0482C24.7093 42.9138 31.2631 34.0162 44.5584 34.0162C49.6912 34.0162 52.2147 35.4903 52.2147 35.4903L48.3559 46.5765L48.2743 46.6174ZM46.0693 3.84446C46.6246 3.84446 47.1758 3.99963 47.723 4.39571C43.705 6.29446 39.295 11.0883 37.482 20.6964C34.8033 21.5661 32.2023 22.3501 29.7686 23.0565C31.8878 15.7678 37.0083 3.88529 46.0693 3.88529V3.84446ZM51.1122 15.8862V16.4375C48.0333 17.3848 44.6483 18.4138 41.3367 19.4428C43.2395 12.1867 46.7798 8.64238 49.8504 7.31121C50.6385 9.35696 51.1122 12.1132 51.1122 15.8862ZM53.3131 6.76404C56.1469 7.06621 57.9722 10.3043 59.1482 13.9303C57.7231 14.3958 56.1469 14.8735 54.4197 15.4248V14.3958C54.4197 11.3251 54.0277 8.79754 53.3131 6.75588V6.76404ZM65.5304 12.0275C65.4488 12.0275 65.2854 12.1132 65.2119 12.1132C65.1384 12.1132 64.0318 12.4195 62.2964 12.9707C60.5692 7.93596 57.4944 3.29321 52.0554 3.29321H51.5858C50.0097 1.30871 48.1068 0.455292 46.4572 0.455292C33.7743 0.455292 27.7147 16.2864 25.8159 24.3265C20.9404 25.8169 17.392 26.9235 16.9959 27.0786C14.2397 27.9484 14.1621 28.026 13.8436 30.6311C13.5373 32.5176 6.37109 88.055 6.37109 88.055L61.7452 98.4553L65.5304 12.0275Z" fill="#95BF47"/>
</g>
<defs>
<clipPath id="clip0_4288_1095">
<rect width="98" height="98" fill="white" transform="translate(0.457031 0.455292)"/>
</clipPath>
</defs>
</svg>
